<?xml version="1.0" encoding="utf-8"?>
<!-- Generator: Adobe Illustrator 22.1.0, SVG Export Plug-In . SVG Version: 6.00 Build 0)  -->
<svg version="1.1" id="Layer_1" xmlns="http://www.w3.org/2000/svg" xmlns:xlink="http://www.w3.org/1999/xlink" x="0px" y="0px"
	 viewBox="0 0 842 595" style="enable-background:new 0 0 842 595;" xml:space="preserve">
<style type="text/css">
	.st0{fill-rule:evenodd;clip-rule:evenodd;fill:#116735;}
	.st1{fill-rule:evenodd;clip-rule:evenodd;fill:#BCDDC1;}
	.st2{fill-rule:evenodd;clip-rule:evenodd;fill:#FFFFFF;}
	.st3{fill:#FFFFFF;}
	.st4{fill:#116735;}
</style>
<path class="st0" d="M287.8,237.4c6.9-23.2,81.7-59.6,112.1-61.6c49.3-3.2,92.6,11.8,126.5,23.8c24.5,8.6,37.3,36.2,40.2,59.8
	c2.4,19.8,1.8,40.1-0.2,59.8c-2.4,24-6.7,47.8-11.9,71.3c-3.6,16.5-9.1,33-25.9,40.2c-9.3,4-18.5,8.2-27.7,12.3
	c-10.8,4.7-21.7,9.3-32.8,13.4c-22,8.2-52.7,17.6-76.2,12.4l0,0l0,0c-7.4-1.8-14.9-3.6-22.2-5.6c-7.1-1.9-14.3-4.1-21.2-6.8
	L284,434.5c-20.1-7.2-37.3-21.6-36.3-44.7l0.8-37.1l0-0.1c1.2-24.7,12.1-39.5,32.8-52.1L287.8,237.4z"/>
<path class="st1" d="M329,212.7c16.6-13.4,41.9-22.9,65.9-27.1c24.7-4.3,101.1,6.3,129.1,20.5c9.5,4.8,5,8.8-1.2,15
	c-11.7,11.7-38.4,25.9-61.9,29.1c-14,1.9-12.2-5.5-24.1-9c-33.6-9.8-61.2-9.7-95.5,1.2C329.1,246.2,321.7,218.6,329,212.7z"/>
<path class="st2" d="M329,212.7c16.6-13.4,41.9-22.9,65.9-27.1c24.7-4.3,101.1,6.3,129.1,20.5c9.5,4.8,2.9,7.4-3.2,13.6
	c-11.7,11.7-35,23.2-58.5,26.4c-14,1.9-12.2-4.2-24.1-7.6c-33.6-9.8-59.2-11.7-93.5-0.9C332.5,241.5,321.7,218.6,329,212.7z"/>
<path class="st2" d="M376.6,249.9c42.6-12.6,74.9,16,74.5,42.9l-0.4,25.8l-1.9,26.8c-0.3,7.4-6.2,6.9-7.4,0.2
	c16.2-19.6-16-22-10.4-10.6c4.8,9.7-4,40.1-28.2,43c-36.6,4.3-43.5-11.2-68.3-26.9c-22.9-14.5-45.4-26.1-43.5-33.1
	c-0.6-18.2,0.9-49.5,9.2-67.3c0.7-6.2,20.2-17.5,32.3,8.8C342,271.8,354.7,256.3,376.6,249.9z"/>
<path class="st0" d="M295.6,340.5c0,0,2.1-25.5-3.8-32.6c-5.9-7-24.5,25.3-25.6,30.8C265.1,344.3,281.5,346.6,295.6,340.5z"/>
<path class="st2" d="M290.7,330.8c0,0,2.4-11.8-1-15.9c-3.4-4.1-9.3,8.6-10,11.9C279.1,330.1,284.1,334.3,290.7,330.8z"/>
<path class="st2" d="M284.4,312.6c-22.2,21.2-6.8,27.4,16.2,34.2c14.3,4.2,41.6,27.8,59.7,49.5c34.9,41.8,81.7-9.7,77.8-60.2
	c4.1,0,6,4.6,6.7,8.8c4.1-8.1,3.5-38.8,4-48.9c5.2,34.7-5.4,102.2-17.2,129.3c-7.3,22.6-30.9,37.6-47.3,31.8l-96.7-32.9
	c-16.4-5.8-29.7-12.4-28.8-29.7l0.6-41.3C260.3,335.8,263.1,325.5,284.4,312.6z"/>
<path class="st1" d="M274.3,376.5c-0.6,0.4-1.3,0.7-2.1,0.7c-3.2,0.3-6.1-3-6.5-7.3c-0.3-3.8,1.4-7.2,4-8.1c0.6-0.4,1.3-0.7,2.1-0.7
	c3.2-0.3,6.1,3,6.5,7.3C278.7,372.2,276.9,375.5,274.3,376.5L274.3,376.5z M290.2,410.1c-0.7,0.4-1.4,0.7-2.2,0.8
	c-3.2,0.2-6-3.1-6.3-7.5c-0.2-3.8,1.6-7,4.1-8c0.7-0.4,1.4-0.7,2.2-0.8c3.2-0.2,6,3.1,6.3,7.5C294.6,405.9,292.8,409.2,290.2,410.1
	L290.2,410.1z M292.9,381c-0.7,0.4-1.4,0.7-2.2,0.8c-3.2,0.2-6-3.1-6.3-7.5c-0.2-3.8,1.6-7,4.1-8c0.7-0.4,1.4-0.7,2.2-0.8
	c3.2-0.2,6,3.1,6.3,7.5C297.3,376.8,295.5,380.1,292.9,381L292.9,381z M282.5,392.1c2.6-0.9,4.4-4.2,4.1-8c-0.3-4.3-3.1-7.7-6.3-7.5
	c-0.8,0.1-1.5,0.3-2.2,0.8c-2.6,0.9-4.4,4.2-4.1,8c0.3,4.3,3.1,7.7,6.3,7.5C281,392.8,281.8,392.6,282.5,392.1L282.5,392.1z
	 M273.3,404.7c-0.6,0.4-1.3,0.7-2.1,0.7c-3.2,0.3-6.1-3-6.5-7.3c-0.3-3.8,1.4-7.2,4-8.1c0.6-0.4,1.3-0.7,2.1-0.7
	c3.2-0.3,6.1,3,6.5,7.3C277.7,400.4,276,403.7,273.3,404.7L273.3,404.7z M263.1,354.9c0,0,0.7,19.4-0.7,29.2
	c-1.4,9.7,0,15.3,5.6,22.9c5.6,7.6,47.9,23.6,68.8,27.8c-1-1.3-1-1.3-2-3c-1-0.4-6.4-2.2-7.4-2.8c0,0,4.2-0.3,5.4-0.5
	c-1.4-2.5-1.8-3.3-3.1-6.3c-1.7-0.4-6.3-3.1-7.8-4.1c0,0,3.5-0.2,5.7-0.7c-4.2-9.8-8.3-21.1-12.4-30.5c-6.9-16-12.5-23.6-29.9-36.8
	C268,336.8,263.1,354.9,263.1,354.9z"/>
<path class="st1" d="M357.2,435.4c0,0,21.1,24.5,40.8,17.8c19.7-6.7,32-23,37.1-46C420.2,431.8,403.9,457,357.2,435.4z"/>
<path class="st1" d="M358.1,402.1c0,0,13.7,25.3,33.4,23.8c16.1-1.2,23.5-13.8,28.8-25.4c-8.6,10.7-19.1,17.1-30.9,17.7
	C379.8,418.6,369.6,413.6,358.1,402.1z"/>
<path class="st1" d="M408.5,213.3c1.1-6.2,14.4-9.1,29.8-6.4c15.4,2.7,27,10,26,16.2c-1.1,6.3-14.4,9.1-29.8,6.4
	C419.1,226.8,407.4,219.5,408.5,213.3z"/>
<path class="st1" d="M460,205.3c1.2-5.3,12.8-7,25.8-3.9c13,3.1,22.5,9.9,21.3,15.2c-1.2,5.3-12.8,7-25.8,3.9
	C468.3,217.4,458.8,210.6,460,205.3z"/>
<path class="st2" d="M539.5,235.5c-18.4,12.2-37.4,20.3-57.1,24.5c-10.3,2.2-21,14.7-21.4,34.3c-1,39.7-6,82.1-11.1,118.6
	c-2.7,19.4,7,36.7,17.2,32.3c19-8.2,38.1-16.3,57.1-24.5c10.2-4.4,15.4-13.8,19.5-32.5c8-36.4,16.9-86.8,11.9-127.4
	C553.3,242.2,549.5,228.8,539.5,235.5z"/>
<path class="st1" d="M461.4,355c-2,19.6-4.5,39.1-7.2,58.4c-0.9,6.6-0.4,13.9,2.2,20.1c1.1,2.6,3.8,7.5,7.1,7.9
	c0.6,0.1,1.3-0.1,1.8-0.3c19-8.2,38.1-16.3,57.1-24.5c1.5-0.6,2.9-1.4,4.3-2.4c7.6-5.7,10.8-18.2,12.7-27
	c2.3-10.2,4.3-20.5,6.2-30.8c-2.6,2.6-1.8,11.2-4.6,13.3c0.2-5.5-0.5-11.1-2.3-16.3c-1.6-4.5-4.4-9.3-8.9-12.5
	c2.1,3,3.6,6.5,4.5,9.9c2.5,8.9,2.3,19.2,0.8,28.2c-1.5,8.5-4.5,17.7-9.4,24.9c-3.8,5.6-9.6,11.2-16.8,10.9c-0.8,0-1.6-0.1-2.3-0.3
	c-7.6-1.7-11.7-9.3-13.6-16.2c-2.5-8.9-2.3-19.2-0.8-28.2c1.4-8.4,4.4-17.4,9.1-24.5c-0.8,0.8-1.6,1.6-2.3,2.5
	c-5.9,6.9-9.6,15.7-11.3,23.9c-0.4,1.6-0.7,3.3-0.9,5C478.8,373.6,467.9,362,461.4,355z"/>
<path class="st0" d="M367.1,385c0,0,23.8-37.7,35.1-45.3c11.3-7.5,11.1,51.2,7.9,59.9C407,408.3,376.7,409.5,367.1,385z"/>
<path class="st2" d="M375.4,387.4c0,0,16.9-28.8,24.9-34.6c7.9-5.8,7.5,38.8,5.2,45.3C403.1,404.8,381.9,405.9,375.4,387.4z"/>
<path class="st1" d="M397.6,400.6c-5.3,0.8-12.7-1.1-17.5-7.4c10.6-3.8,16.9-24.8,19.9-23.6C402.9,370.7,398.4,393.3,397.6,400.6z"
	/>
<path class="st0" d="M504.3,264.4c9.6,2.6,13.7,21.1,9.1,41.2c-4.5,20.1-16,34.3-25.6,31.7c-9.6-2.6-13.7-21.1-9.1-41.2
	C483.3,275.9,494.7,261.8,504.3,264.4z"/>
<path class="st0" d="M521.3,338.6c9.4,2.1,14.3,19.7,10.9,39.4c-3.4,19.7-13.8,34-23.2,31.9c-9.4-2.1-14.3-19.7-10.9-39.4
	C501.5,350.8,511.9,336.5,521.3,338.6z"/>
<path class="st0" d="M409.2,214.7c1-5.6,14.2-8.1,29.3-5.6c15.2,2.5,26.6,9.1,25.6,14.7c-1,5.6-14.2,8.1-29.3,5.6
	C419.6,226.9,408.1,220.3,409.2,214.7z"/>
<path class="st0" d="M460.5,206.6c1.2-4.7,12.5-6.2,25.3-3.3c12.8,2.9,22.2,9.1,21.1,13.9c-1.2,4.7-12.5,6.2-25.3,3.3
	C468.8,217.6,459.4,211.3,460.5,206.6z"/>
<path class="st0" d="M271,390c-3.4,0.3-4.7,4.7-4.5,7.6c0.3,2.9,2.3,7,5.7,6.7c3.4-0.3,4.7-4.7,4.5-7.6
	C276.5,393.7,274.5,389.6,271,390L271,390z M280.4,377.4c3.5-0.2,5.4,3.9,5.5,6.8c0.2,2.9-1.2,7.3-4.7,7.5c-3.5,0.2-5.4-3.9-5.5-6.8
	C275.5,381.9,276.9,377.6,280.4,377.4L280.4,377.4z M290.8,366.3c-3.5,0.2-4.9,4.6-4.7,7.5c0.2,2.9,2.1,7,5.5,6.8
	c3.5-0.2,4.9-4.5,4.7-7.5C296.2,370.2,294.3,366.1,290.8,366.3L290.8,366.3z M288.1,395.4c-3.5,0.2-4.9,4.6-4.7,7.5
	c0.2,2.9,2.1,7,5.5,6.8c3.5-0.2,4.9-4.6,4.7-7.5C293.5,399.3,291.6,395.1,288.1,395.4L288.1,395.4z M272,361.8
	c-3.4,0.3-4.7,4.7-4.5,7.6c0.3,2.9,2.3,7,5.7,6.7c3.4-0.3,4.7-4.7,4.5-7.6C277.4,365.5,275.4,361.4,272,361.8z"/>
<path class="st0" d="M326,398.7c0.2,0.2,4.3,7.7,10.8,17.2c4.2-1.2,8.3-2.9,10.8-4.8c-2.7,3.7-5.6,6.3-8.5,8
	c1.7,2.4,3.5,4.9,5.5,7.3c3.9-1.2,7.7-2.8,10.1-4.6c-2.5,3.3-5.1,5.8-7.7,7.6c9.2,11.3,23.7,23.8,35,27c6.9,13.5-23.7-4.1-23.7-4.1
	c0,0-8.5-8.4-16.8-20.5c-3.8,0.9-7.5,0.2-11-2.1c0,0,3.8-0.6,8.5-1.7c-1.4-2.3-2.9-4.6-4.2-7.1c-3.9,1-7.7,0.3-11.3-2
	c0,0,4.2-0.6,9.2-1.9C329.5,411.1,327.2,404.9,326,398.7z"/>
<path class="st0" d="M353.8,226.2c-4.4,4.7-20.7,5.5-8-17.2c2-18-9.2-30.4-17.4-38.1c-15-14-32.1-2.5-24.8-16
	c5.6-10.4,52-13.4,64.8,9.4c-5.2-24.1-27.1-24.8-17.7-30.1c9.3,2.2,20.8,2.4,31.5,20.7c1.6-18.9-19.7-28-11.5-27.4
	c11,3.8,21.9,9,27,27.1c5.6-25.1-14-31.4-5.1-31.3c9,6,17.6,8,19.1,26.2c9.4-17.3-6.1-33.1,2-30.2c7.3,9,15.4,14,14.8,28.7
	c4.8-10.8,1.5-33.4,5.9-26.2c5.3,9.4,8.1,13.6,5.4,28.2c12.2-6.8,9-31.5,12.8-24c4.8,10.5,6.7,13.8,4.8,26
	c7.1-6.7,9.2-9.4,11.8-18.3c4-9.3,16.6,18,9.3,29.7c8.8-8.9,15.8-10.8,22.8-10.6c-11.8,12,1.4,28.4,5.4,42
	C455,176.9,379.8,186.5,353.8,226.2z"/>
<path class="st0" d="M541,184.5c0,0,34,19.6,34,56.2C582.8,219.8,576.3,191,541,184.5z"/>
<path class="st0" d="M255.2,435.6c-9.3-7.7-21.6-24.7-20.6-51.4C223.2,403.5,221.6,423.1,255.2,435.6z"/>
<path class="st0" d="M326.8,346.3c0,0,16.1-24.5,14.8-53c-5.1,21.6-14.5,43.2-23.6,52C308.8,354.1,318.8,350.6,326.8,346.3z"/>
<path class="st3" d="M527.2,399.7c6.5,4.4,10.5,11.2,11.8,18.5c1.2,7.2-0.3,15.1-4.9,21.8l0,0c-4.5,6.7-11.3,11-18.4,12.6
	c-7.3,1.6-16.8-1-23.3-5.5h0c-0.7-0.5-1.4-1-2.1-1.6l10.7-4.6c3.5,1.4,9.1,3.1,12.7,2.3c4.9-1.1,9.4-4,12.5-8.6l0,0
	c3.1-4.6,4.1-9.9,3.3-14.8c-0.8-4.8-3.4-9.3-7.7-12.1c-3-2-6.9-3.6-10.4-2.3c-2.6,1-6.9,0-8.2-4.9c3.9-6.8,14.4-5,16.1-4.4
	C521.9,396.9,524.6,397.9,527.2,399.7z"/>
<path class="st4" d="M528.2,398.2c-2.8-1.9-5.6-2.9-8.2-3.9l-0.1,0c-1.2-0.4-6.4-1.4-11-0.2c-2.9,0.8-5.6,2.4-7.3,5.3l-0.2,1.3
	c0.1,0.4,0.2,0.8,0.4,1.1c0.9,2.4,2.5,3.9,4.3,4.7c1.8,0.8,3.7,0.9,5.3,0.5c0.2-0.1,0.5-0.1,0.7-0.2c1.2-0.5,2.5-0.5,3.8-0.2
	c1.7,0.4,3.5,1.3,4.9,2.3c1.9,1.3,3.4,2.9,4.5,4.7c1.2,1.9,2,4,2.4,6.3c0.4,2.3,0.3,4.7-0.2,7c-0.5,2.3-1.4,4.5-2.8,6.5l0,0v0l0,0
	c-1.4,2-3.1,3.7-5,5c-2,1.3-4.2,2.3-6.4,2.8c-1.3,0.3-3,0.2-4.8-0.1c-2.4-0.4-5-1.3-6.9-2l-0.7-0.3l-0.7,0.3l-10.7,4.6l-2.7,1.2
	l2.3,1.9c0.3,0.3,0.7,0.5,1.1,0.9c0.4,0.3,0.7,0.5,1.1,0.8h0c3.5,2.4,7.9,4.3,12.4,5.3c4.2,1,8.5,1.2,12.3,0.4
	c3.9-0.8,7.6-2.4,11-4.8c3.2-2.2,6.2-5.1,8.5-8.6l0,0l0,0l0,0c2.4-3.5,3.9-7.2,4.8-11.1c0.9-4,1-8.1,0.3-12c-0.7-4-2.1-7.8-4.3-11.2
	C534.4,403.4,531.6,400.5,528.2,398.2L528.2,398.2z M533.4,408.6c1.9,3,3.2,6.4,3.8,9.8c0.6,3.5,0.5,7.1-0.3,10.6
	c-0.8,3.4-2.2,6.8-4.3,9.9l0,0l0,0l0,0c-2.1,3.1-4.7,5.6-7.6,7.6c-3,2-6.3,3.5-9.8,4.2c-3.2,0.7-7,0.5-10.8-0.4
	c-3.8-0.9-7.6-2.5-10.7-4.5l7.1-3.1c2,0.8,4.4,1.5,6.9,2c2.2,0.4,4.4,0.5,6.2,0.1c2.7-0.6,5.3-1.7,7.7-3.3c2.3-1.5,4.3-3.6,6-6l0,0
	l0,0l0,0c1.6-2.4,2.8-5.1,3.4-7.8c0.6-2.8,0.7-5.6,0.2-8.4c-0.5-2.7-1.4-5.3-2.9-7.6c-1.4-2.2-3.3-4.2-5.6-5.7
	c-1.8-1.2-3.9-2.3-6.2-2.8c-1.9-0.4-3.9-0.4-5.8,0.3c-0.1,0-0.2,0.1-0.3,0.1c-0.8,0.2-1.9,0.2-2.8-0.3c-1-0.5-1.9-1.3-2.4-2.7l0-0.1
	c1.2-1.6,2.9-2.5,4.7-3c3.8-1,7.9-0.3,8.9,0.1l0.1,0c2.4,0.9,5,1.8,7.4,3.4C529.1,403.2,531.6,405.7,533.4,408.6z"/>
<path class="st3" d="M522.7,436.6c-0.2-0.2-0.9-0.3-1.4-0.1c-0.2,0.1-0.4,0.1-0.5,0.3c-0.1,0.1-0.2,0.2-0.2,0.3
	c-0.1,0.5,0.2,1.5,1.5,2.9c2.3,2.5,6.5,4.6,9.5,5c0.8,0.1,1.4,0.1,1.9,0c0.2-0.1,0.4-0.1,0.4-0.2v0c0.1-0.4-0.1-1.1-0.8-2.2l2-1.2
	c1,1.7,1.3,3,1,4l0,0c-0.3,1-1,1.6-2,1.9c-0.8,0.2-1.8,0.2-2.9,0.1c-3.4-0.5-8.3-2.9-10.9-5.8c-1.9-2.2-2.4-3.9-2.1-5.1
	c0.2-0.6,0.5-1.1,1-1.5c0.4-0.3,0.9-0.6,1.4-0.7c1.4-0.4,3.1,0,3.8,0.8L522.7,436.6z"/>
<path class="st4" d="M522.3,437c0,0-0.1,0-0.2,0c-0.2,0-0.4,0-0.7,0.1c-0.1,0-0.1,0-0.2,0.1v0c0,0-0.1,0-0.1,0.1l0,0
	c0,0.1,0,0.4,0.2,0.7v0c0.2,0.4,0.6,0.9,1.2,1.6c1,1.2,2.5,2.2,4.1,3.1c1.7,0.9,3.5,1.6,5,1.8c0.4,0.1,0.7,0.1,1,0.1
	c0.2,0,0.4,0,0.6-0.1c0-0.1,0-0.2-0.1-0.3c-0.1-0.3-0.3-0.7-0.6-1.2l-0.3-0.5l0.5-0.3l2-1.2l0.5-0.3l0.3,0.5
	c0.5,0.9,0.9,1.7,1.1,2.4c0.2,0.8,0.2,1.5,0,2.1l-0.2,0.6l0,0c-0.2,0.4-0.4,0.7-0.7,0.9c-0.4,0.4-1,0.7-1.6,0.9
	c-0.4,0.1-0.9,0.2-1.5,0.2c-0.5,0-1.1,0-1.7-0.1c-1.8-0.3-4.1-1.1-6.2-2.2c-1.9-1-3.8-2.4-5.1-3.8c-1-1.1-1.6-2-1.9-2.9
	c-0.4-1-0.5-2-0.3-2.8l0,0c0.1-0.4,0.2-0.7,0.4-1c0.2-0.3,0.4-0.6,0.7-0.8c0.2-0.2,0.5-0.4,0.8-0.5c0.3-0.1,0.6-0.3,0.9-0.3h0
	c0.8-0.2,1.7-0.2,2.4-0.1c0.8,0.2,1.5,0.5,2,1.1l0.4,0.4l-0.4,0.4l-1.8,1.6l-0.4,0.4L522.3,437L522.3,437z M522.2,435.8
	c0.2,0,0.3,0,0.4,0.1l0.9-0.9c-0.3-0.1-0.6-0.3-0.9-0.3c-0.6-0.1-1.3-0.1-1.9,0l0,0c-0.2,0.1-0.5,0.2-0.7,0.3
	c-0.2,0.1-0.4,0.2-0.5,0.4c-0.2,0.2-0.3,0.3-0.5,0.5c-0.1,0.2-0.2,0.4-0.3,0.7v0c-0.1,0.5-0.1,1.2,0.2,2c0.3,0.7,0.8,1.6,1.7,2.5
	c1.2,1.4,2.9,2.6,4.8,3.6c2,1.1,4.1,1.8,5.8,2.1c0.5,0.1,1,0.1,1.5,0.1c0.4,0,0.8-0.1,1.2-0.2c0.4-0.1,0.8-0.3,1.1-0.6
	c0.3-0.2,0.4-0.5,0.5-0.9l0-0.1c0.1-0.4,0.1-0.9-0.1-1.4c-0.1-0.5-0.3-1-0.6-1.5l-1,0.6c0.2,0.3,0.3,0.6,0.4,0.9
	c0.2,0.5,0.2,0.9,0.1,1.2l0,0c-0.1,0.2-0.2,0.4-0.4,0.5l0,0c-0.1,0.1-0.3,0.1-0.4,0.2c-0.3,0.1-0.6,0.1-1,0.1c-0.4,0-0.8,0-1.2-0.1
	c-1.6-0.2-3.6-0.9-5.4-1.9c-1.7-0.9-3.3-2-4.4-3.3c-0.6-0.7-1.1-1.3-1.3-1.8h0c-0.3-0.7-0.4-1.2-0.3-1.6c0-0.1,0.1-0.2,0.1-0.3
	c0.1-0.1,0.1-0.2,0.2-0.3c0.1-0.1,0.2-0.2,0.3-0.2h0c0.1-0.1,0.3-0.1,0.4-0.1C521.5,435.8,521.9,435.7,522.2,435.8z"/>
<path class="st3" d="M526.2,431.3c-0.3-0.1-0.9,0-1.4,0.4c-0.2,0.1-0.3,0.3-0.4,0.4c-0.1,0.1-0.1,0.2-0.1,0.3
	c0.1,0.5,0.7,1.3,2.5,2.2c3,1.5,7.7,1.9,10.6,1.3c0.8-0.2,1.4-0.4,1.8-0.7c0.2-0.1,0.3-0.3,0.3-0.4l0,0c0-0.4-0.5-1-1.5-1.7l1.5-1.9
	c1.6,1.2,2.3,2.4,2.4,3.4h0c0.1,1-0.4,1.9-1.2,2.5c-0.7,0.5-1.6,0.9-2.7,1.1c-3.4,0.7-8.8,0.3-12.3-1.5c-2.6-1.3-3.6-2.7-3.8-4
	c-0.1-0.6,0.1-1.2,0.3-1.8c0.3-0.5,0.6-0.9,1.1-1.2c1.1-0.8,2.8-1.1,3.9-0.6L526.2,431.3z"/>
<path class="st4" d="M525.9,431.8c0,0-0.1,0-0.2,0c-0.2,0.1-0.4,0.2-0.6,0.3c0,0-0.1,0.1-0.1,0.1v0c0,0-0.1,0.1-0.1,0.1v0
	c0,0.1,0.2,0.4,0.5,0.6l0,0c0.4,0.3,0.9,0.7,1.7,1.1c1.4,0.7,3.2,1.2,4.9,1.4c1.9,0.2,3.8,0.2,5.3-0.1c0.4-0.1,0.7-0.2,1-0.3
	c0.2-0.1,0.4-0.2,0.5-0.3c0-0.1-0.1-0.2-0.2-0.3c-0.2-0.3-0.5-0.6-1-0.9l-0.5-0.4l0.4-0.5l1.5-1.9l0.4-0.5l0.5,0.4
	c0.8,0.6,1.4,1.2,1.8,1.8c0.5,0.7,0.7,1.3,0.8,2l0.1,0.6l0,0c0,0.4-0.1,0.8-0.3,1.1c-0.3,0.5-0.6,1-1.2,1.4
	c-0.4,0.3-0.8,0.5-1.3,0.7c-0.5,0.2-1,0.4-1.6,0.5c-1.8,0.4-4.2,0.5-6.5,0.2c-2.2-0.3-4.4-0.8-6.1-1.7c-1.3-0.6-2.2-1.3-2.8-2
	c-0.8-0.8-1.1-1.7-1.2-2.5v0c0-0.4,0-0.7,0-1.1c0.1-0.4,0.2-0.7,0.4-1c0.1-0.3,0.3-0.5,0.5-0.7c0.2-0.2,0.5-0.5,0.7-0.6l0,0
	c0.7-0.5,1.5-0.8,2.3-0.9c0.8-0.1,1.6,0,2.2,0.3l0.5,0.3l-0.3,0.5l-1.1,2.1l-0.3,0.5L525.9,431.8L525.9,431.8z M525.4,430.7
	c0.1,0,0.3-0.1,0.4-0.1l0.6-1.1c-0.3,0-0.6,0-0.9,0c-0.6,0.1-1.2,0.3-1.7,0.7v0c-0.2,0.1-0.4,0.3-0.5,0.5c-0.1,0.2-0.3,0.3-0.4,0.5
	c-0.1,0.2-0.2,0.4-0.3,0.7c0,0.2-0.1,0.5,0,0.7l0,0c0.1,0.6,0.3,1.2,0.9,1.8c0.5,0.6,1.4,1.2,2.5,1.8c1.6,0.8,3.7,1.4,5.7,1.6
	c2.2,0.3,4.4,0.2,6.1-0.2c0.5-0.1,1-0.3,1.4-0.4c0.4-0.2,0.7-0.4,1-0.6c0.4-0.3,0.6-0.6,0.8-0.9c0.2-0.3,0.2-0.7,0.2-1.1l0-0.1
	c-0.1-0.4-0.2-0.9-0.6-1.3c-0.3-0.4-0.7-0.8-1.1-1.2l-0.7,0.9c0.3,0.3,0.5,0.5,0.7,0.7c0.3,0.4,0.5,0.8,0.5,1.1l0,0
	c0,0.2,0,0.4-0.2,0.6l0,0c-0.1,0.1-0.2,0.2-0.3,0.3c-0.2,0.2-0.5,0.3-0.9,0.5c-0.3,0.1-0.7,0.2-1.1,0.3c-1.6,0.3-3.7,0.4-5.7,0.2
	c-1.9-0.2-3.8-0.7-5.3-1.5c-0.9-0.4-1.5-0.8-1.9-1.2l0,0c-0.6-0.5-0.8-1-0.9-1.4c0-0.1,0-0.2,0-0.4c0-0.1,0.1-0.2,0.1-0.3
	c0.1-0.1,0.1-0.2,0.2-0.3l0,0c0.1-0.1,0.2-0.2,0.3-0.3C524.7,431,525.1,430.8,525.4,430.7z"/>
<path class="st3" d="M527.4,425.6c-0.3-0.1-0.9,0.3-1.2,0.8c-0.1,0.2-0.2,0.3-0.3,0.5c0,0.1,0,0.2,0,0.3c0.2,0.5,1,1,3,1.4
	c3.3,0.7,7.9-0.2,10.6-1.6c0.7-0.4,1.2-0.8,1.5-1.1c0.1-0.2,0.2-0.3,0.2-0.4l0,0c-0.1-0.4-0.7-0.8-1.9-1.3l0.9-2.2
	c1.8,0.8,2.9,1.7,3.2,2.6h0c0.4,1,0.2,1.9-0.5,2.8c-0.5,0.7-1.3,1.3-2.3,1.8c-3.1,1.6-8.4,2.6-12.2,1.8c-2.8-0.6-4.2-1.7-4.7-2.9
	c-0.2-0.6-0.3-1.2-0.1-1.8c0.1-0.5,0.4-1,0.7-1.4c0.9-1.1,2.4-1.9,3.6-1.6L527.4,425.6z"/>
<path class="st4" d="M527.3,426.2c0,0-0.1,0-0.2,0.1c-0.2,0.1-0.3,0.3-0.5,0.4c0,0-0.1,0.1-0.1,0.2h0c0,0,0,0.1,0,0.1l0,0
	c0.1,0.1,0.3,0.3,0.6,0.5l0,0c0.4,0.2,1,0.4,1.9,0.6c1.5,0.3,3.4,0.3,5.1,0c1.9-0.3,3.8-0.8,5.1-1.6c0.3-0.2,0.6-0.4,0.8-0.5
	c0.2-0.1,0.3-0.3,0.5-0.4c-0.1-0.1-0.2-0.1-0.3-0.2c-0.3-0.2-0.7-0.4-1.2-0.6l-0.6-0.2l0.2-0.6l0.9-2.2l0.2-0.6l0.6,0.2
	c1,0.4,1.7,0.8,2.3,1.3c0.6,0.5,1.1,1.1,1.3,1.7l0.2,0.5l0,0c0.1,0.4,0.1,0.8,0,1.2c-0.1,0.6-0.4,1.1-0.8,1.6
	c-0.3,0.4-0.6,0.7-1.1,1c-0.4,0.3-0.9,0.6-1.4,0.9c-1.6,0.9-3.9,1.6-6.3,1.9c-2.2,0.3-4.4,0.4-6.4,0c-1.4-0.3-2.5-0.7-3.3-1.2
	c-1-0.6-1.6-1.3-1.9-2v0c-0.1-0.4-0.2-0.7-0.2-1.1c0-0.4,0-0.7,0.1-1.1c0.1-0.3,0.2-0.6,0.3-0.9c0.1-0.3,0.3-0.6,0.5-0.8l0,0
	c0.5-0.6,1.2-1.2,1.9-1.5c0.7-0.3,1.5-0.5,2.2-0.3l0.6,0.1l-0.1,0.6l-0.5,2.4l-0.1,0.6L527.3,426.2L527.3,426.2z M526.5,425.3
	c0.1-0.1,0.3-0.1,0.4-0.2l0.2-1.2c-0.3,0-0.6,0.1-0.9,0.3c-0.6,0.3-1.1,0.7-1.5,1.2v0c-0.1,0.2-0.3,0.4-0.4,0.6
	c-0.1,0.2-0.2,0.4-0.2,0.6c-0.1,0.2-0.1,0.5-0.1,0.7c0,0.2,0.1,0.5,0.2,0.7l0,0c0.2,0.5,0.6,1,1.4,1.5c0.7,0.4,1.6,0.8,2.9,1
	c1.8,0.4,3.9,0.3,5.9,0c2.2-0.3,4.3-1,5.9-1.8c0.5-0.3,0.9-0.5,1.2-0.8c0.3-0.3,0.6-0.5,0.8-0.8c0.3-0.4,0.5-0.7,0.5-1.1
	c0.1-0.3,0-0.7-0.1-1.1l0-0.1c-0.2-0.4-0.5-0.8-0.9-1.1c-0.4-0.3-0.8-0.6-1.4-0.9l-0.5,1.1c0.4,0.2,0.6,0.3,0.9,0.5
	c0.4,0.3,0.7,0.6,0.8,0.9l0,0c0.1,0.2,0.1,0.4,0,0.6h0c0,0.1-0.1,0.3-0.2,0.4c-0.2,0.2-0.4,0.5-0.7,0.7c-0.3,0.2-0.6,0.4-1,0.6
	c-1.4,0.8-3.4,1.4-5.5,1.7c-1.9,0.3-3.9,0.3-5.5,0c-0.9-0.2-1.6-0.4-2.2-0.7v0c-0.7-0.3-1.1-0.7-1.2-1.1c0-0.1-0.1-0.2-0.1-0.4
	c0-0.1,0-0.2,0-0.3c0-0.1,0.1-0.3,0.1-0.4l0,0c0.1-0.1,0.1-0.2,0.2-0.4C526,425.7,526.3,425.4,526.5,425.3z"/>
<path class="st1" d="M325.5,274.2c7.9,1.8,11.6,11.3,8.4,21.3c-3.2,10-12.2,16.6-20.1,14.8c-7.9-1.8-11.6-11.3-8.4-21.3
	C308.6,279,317.6,272.4,325.5,274.2L325.5,274.2z M371.1,268.3c-13.6,0.9-22.4,15.8-19.6,33.3c2.8,17.5,16,31,29.6,30.1
	c13.6-0.9,22.4-15.8,19.6-33.3C397.9,280.9,384.7,267.4,371.1,268.3z"/>
<path class="st0" d="M321.3,270c6.8,1.5,10,9.8,7.3,18.4c-2.8,8.6-10.6,14.4-17.4,12.8c-6.8-1.5-10-9.8-7.3-18.4
	C306.8,274.2,314.5,268.5,321.3,270z"/>
<path class="st0" d="M372.8,268.3c-12.3,0.8-20.3,14.4-17.8,30.3c2.5,15.9,14.6,28.1,26.9,27.3c12.3-0.8,20.3-14.4,17.8-30.3
	C397.2,279.7,385.1,267.5,372.8,268.3z"/>
<path class="st2" d="M320.9,276.1c2.8,0.2,4.9,2.6,4.6,5.4c-0.2,2.8-2.6,4.9-5.4,4.6c-2.8-0.2-4.9-2.6-4.6-5.4
	C315.7,278,318.1,275.9,320.9,276.1z"/>
<path class="st2" d="M382.5,280.1c-4.9-0.4-9.3,3.3-9.6,8.2c-0.4,4.9,3.3,9.3,8.2,9.6c4.9,0.4,9.3-3.3,9.6-8.2
	C391.2,284.8,387.5,280.5,382.5,280.1z"/>
</svg>
